<svg width="452" height="300" viewBox="0 0 452 300" fill="none" xmlns="http://www.w3.org/2000/svg">
<path d="M450.356 0.606934H451.566V299.518H450.356V0.606934Z" fill="#CCCCCC"/>
<path d="M337.81 0.606934H339.02V299.518H337.81V0.606934Z" fill="#CCCCCC"/>
<path d="M225.264 0.606934H226.475V299.518H225.264V0.606934Z" fill="#CCCCCC"/>
<path d="M112.719 0.606934H113.929V299.518H112.719V0.606934Z" fill="#CCCCCC"/>
<path d="M0.173133 0.606934H1.3833V299.518H0.173133V0.606934Z" fill="#CCCCCC"/>
<path d="M393.478 0.606934H394.688V299.518H393.478V0.606934Z" fill="#EBEBEB"/>
<path d="M280.932 0.606934H282.142V299.518H280.932V0.606934Z" fill="#EBEBEB"/>
<path d="M168.387 0.606934H169.597V299.518H168.387V0.606934Z" fill="#EBEBEB"/>
<path d="M55.8409 0.606934H57.051V299.518H55.8409V0.606934Z" fill="#EBEBEB"/>
<path d="M18.3256 4.2373H450.355V15.1288H18.3256V4.2373Z" fill="#246BEB"/>
<path d="M250.678 22.39H450.355V33.2815H250.678V22.39Z" fill="#246BEB"/>
<path d="M335.39 39.3323H450.355V50.2238H335.39V39.3323Z" fill="#99B0CB"/>
<path d="M370.484 57.4847H450.355V68.3763H370.484V57.4847Z" fill="#99B0CB"/>
<path d="M381.376 74.427H450.355V85.3185H381.376V74.427Z" fill="#99B0CB"/>
<path d="M388.637 92.5796H450.355V103.471H388.637V92.5796Z" fill="#99B0CB"/>
<path d="M391.057 109.522H450.355V120.413H391.057V109.522Z" fill="#99B0CB"/>
<path d="M397.108 127.674H450.355V138.566H397.108V127.674Z" fill="#99B0CB"/>
<path d="M400.739 144.617H450.355V155.508H400.739V144.617Z" fill="#99B0CB"/>
<path d="M403.159 161.559H450.355V172.451H403.159V161.559Z" fill="#99B0CB"/>
<path d="M408 179.712H450.355V190.603H408V179.712Z" fill="#99B0CB"/>
<path d="M414.05 196.654H450.355V207.546H414.05V196.654Z" fill="#99B0CB"/>
<path d="M416.471 214.807H450.355V225.698H416.471V214.807Z" fill="#99B0CB"/>
<path d="M417.681 231.749H450.355V242.641H417.681V231.749Z" fill="#99B0CB"/>
<path d="M422.522 249.901H450.355V260.793H422.522V249.901Z" fill="#99B0CB"/>
<path d="M438.254 266.844H450.355V277.735H438.254V266.844Z" fill="#99B0CB"/>
<path d="M444.305 284.996H450.355V295.888H444.305V284.996Z" fill="#99B0CB"/>
<path d="M450.356 0.606934H451.566V299.518H450.356V0.606934Z" fill="#333333"/>
</svg>
