<svg width="452" height="300" viewBox="0 0 452 300" fill="none" xmlns="http://www.w3.org/2000/svg">
<path d="M1.80611 0.607178H0.595947V299.519H1.80611V0.607178Z" fill="#CCCCCC"/>
<path d="M114.352 0.607178H113.142V299.519H114.352V0.607178Z" fill="#CCCCCC"/>
<path d="M226.897 0.607178H225.687V299.519H226.897V0.607178Z" fill="#CCCCCC"/>
<path d="M339.443 0.607178H338.233V299.519H339.443V0.607178Z" fill="#CCCCCC"/>
<path d="M451.988 0.607178H450.778V299.519H451.988V0.607178Z" fill="#CCCCCC"/>
<path d="M58.6838 0.607178H57.4736V299.519H58.6838V0.607178Z" fill="#EBEBEB"/>
<path d="M171.229 0.607178H170.019V299.519H171.229V0.607178Z" fill="#EBEBEB"/>
<path d="M283.775 0.607178H282.565V299.519H283.775V0.607178Z" fill="#EBEBEB"/>
<path d="M396.321 0.607178H395.111V299.519H396.321V0.607178Z" fill="#EBEBEB"/>
<path d="M318.87 4.23779H1.80591V15.1293H318.87V4.23779Z" fill="#99B0CB"/>
<path d="M214.795 22.3903H1.80591V33.2818H214.795V22.3903Z" fill="#99B0CB"/>
<path d="M389.06 39.3325H1.80591V50.224H389.06V39.3325Z" fill="#246BEB"/>
<path d="M246.26 57.4851H1.80591V68.3766H246.26V57.4851Z" fill="#99B0CB"/>
<path d="M295.877 74.4275H1.80591V85.319H295.877V74.4275Z" fill="#99B0CB"/>
<path d="M194.223 92.5798H1.80591V103.471H194.223V92.5798Z" fill="#99B0CB"/>
<path d="M424.154 109.522H1.80591V120.414H424.154V109.522Z" fill="#246BEB"/>
<path d="M384.219 127.675H1.80591V138.566H384.219V127.675Z" fill="#99B0CB"/>
<path d="M238.999 144.617H1.80591V155.509H238.999V144.617Z" fill="#99B0CB"/>
<path d="M189.382 161.559H1.80591V172.451H189.382V161.559Z" fill="#99B0CB"/>
<path d="M274.094 179.712H1.80591V190.603H274.094V179.712Z" fill="#99B0CB"/>
<path d="M344.283 196.654H1.80591V207.546H344.283V196.654Z" fill="#99B0CB"/>
<path d="M196.643 214.807H1.80591V225.698H196.643V214.807Z" fill="#99B0CB"/>
<path d="M195.433 231.749H1.80591V242.641H195.433V231.749Z" fill="#99B0CB"/>
<path d="M194.223 249.902H1.80591V260.793H194.223V249.902Z" fill="#99B0CB"/>
<path d="M194.223 266.844H1.80591V277.736H194.223V266.844Z" fill="#99B0CB"/>
<path d="M199.063 284.997H1.80591V295.888H199.063V284.997Z" fill="#99B0CB"/>
<path d="M1.80611 0.607178H0.595947V299.519H1.80611V0.607178Z" fill="#333333"/>
</svg>
